<svg width="767" height="242" viewBox="0 0 767 242" fill="none" xmlns="http://www.w3.org/2000/svg">
<g filter="url(#filter0_n_13_8147)">
<path d="M182.703 212.285C176.837 230.062 160.764 242 142.696 242H106.083C89.6145 242 74.6434 232.057 67.7129 216.516C65.6903 211.981 64.1438 207.139 64.4059 202.147C65.0096 190.648 70.0883 175.806 84.1199 158.251L84.1203 158.251C93.8697 145.972 117.948 121.77 146.203 108.848L146.872 108.544C149.978 107.22 153.164 105.99 156.426 104.866C139.667 112.111 110.023 130.366 87.391 162.558C83.8045 167.659 80.8904 174.1 79.3276 180.573C77.7655 187.043 77.5487 193.568 79.3833 198.825C81.2229 204.096 85.1207 208.076 91.7376 209.438C98.3389 210.796 107.634 209.547 120.286 204.42C124.83 202.579 132.564 196.575 141.272 186.64C149.986 176.698 159.692 162.799 168.172 145.141C171.78 137.629 180.348 118.056 198.671 101.373C207.549 93.2893 218.392 104.132 214.561 115.741L182.703 212.285Z" fill="url(#paint0_linear_13_8147)"/>
<path d="M83.0004 25.1433C83.0004 42.4733 99.4585 54.6077 115.178 48.8672L217.53 11.4897C232 6.20531 245.95 20.6163 240.971 35.7054L230.193 68.3671C227.647 76.0845 218.816 79.5833 211.367 77.0268C203.325 74.2666 193.377 72.0137 182.568 71.3602C173.24 70.7962 148.071 73.4655 121.85 88.6226C112.95 93.767 91.734 109.564 78.7325 129.426L78.7298 129.43C73.7147 137.509 64.8233 154.168 67.0179 179.058C67.1133 180.14 66.8707 181.408 66.4559 182.406C64.1722 187.898 55.3106 188.706 52.8897 183.278L3.92766 73.4891C1.34029 67.6874 3.40141e-05 61.3685 0 54.9728V43.1698C0 19.3278 18.5803 0 41.5002 0H58.8295C72.1787 0 83.0004 11.2571 83.0004 25.1433Z" fill="url(#paint1_linear_13_8147)"/>
</g>
<path d="M344.846 179.098L303 61.0001H323.131L357.368 161.819H353.406L387.485 61.0001H407.616L365.769 179.098H344.846Z" fill="#005C2F"/>
<path d="M416.594 179.098V93.3383H434.505V179.098H416.594ZM416.594 81.6078V61.0001H434.505V81.6078H416.594Z" fill="#005C2F"/>
<path d="M489.368 180.049C480.385 180.049 473.411 177.513 468.444 172.44C463.478 167.367 460.995 160.234 460.995 151.04V109.507H445.936V93.3383H448.314C452.329 93.3383 455.447 92.1758 457.666 89.8508C459.885 87.5259 460.995 84.3555 460.995 80.3396V73.6818H478.906V93.3383H498.403V109.507H478.906V150.247C478.906 153.206 479.382 155.742 480.333 157.856C481.284 159.864 482.816 161.449 484.929 162.612C487.043 163.668 489.79 164.197 493.172 164.197C494.017 164.197 494.968 164.144 496.025 164.038C497.082 163.933 498.086 163.827 499.037 163.721V179.098C497.557 179.309 495.919 179.52 494.123 179.732C492.326 179.943 490.741 180.049 489.368 180.049Z" fill="#005C2F"/>
<path d="M513.346 179.098V61.0005H531.257V110.141L528.404 107.922C530.517 102.532 533.899 98.4638 538.548 95.7161C543.198 92.8627 548.587 91.436 554.716 91.436C561.057 91.436 566.657 92.8099 571.518 95.5576C576.379 98.3053 580.183 102.11 582.931 106.971C585.678 111.832 587.052 117.381 587.052 123.616V179.098H569.299V128.53C569.299 124.197 568.454 120.551 566.763 117.592C565.178 114.527 562.959 112.202 560.106 110.617C557.252 108.926 553.977 108.081 550.278 108.081C546.685 108.081 543.409 108.926 540.451 110.617C537.597 112.202 535.325 114.527 533.635 117.592C532.05 120.657 531.257 124.303 531.257 128.53V179.098H513.346Z" fill="#005C2F"/>
<path d="M644.422 181C636.18 181 628.624 179.045 621.756 175.135C614.993 171.225 609.603 165.888 605.588 159.124C601.572 152.361 599.564 144.699 599.564 136.139C599.564 127.473 601.572 119.811 605.588 113.153C609.603 106.39 614.993 101.106 621.756 97.3013C628.519 93.3911 636.074 91.436 644.422 91.436C652.876 91.436 660.432 93.3911 667.089 97.3013C673.852 101.106 679.188 106.39 683.098 113.153C687.114 119.811 689.122 127.473 689.122 136.139C689.122 144.805 687.114 152.519 683.098 159.283C679.083 166.046 673.693 171.383 666.93 175.293C660.167 179.098 652.665 181 644.422 181ZM644.422 164.355C649.495 164.355 653.986 163.14 657.895 160.709C661.805 158.279 664.87 154.95 667.089 150.723C669.414 146.39 670.576 141.528 670.576 136.139C670.576 130.749 669.414 125.941 667.089 121.713C664.87 117.486 661.805 114.157 657.895 111.727C653.986 109.296 649.495 108.081 644.422 108.081C639.456 108.081 634.965 109.296 630.949 111.727C627.039 114.157 623.922 117.486 621.597 121.713C619.378 125.941 618.268 130.749 618.268 136.139C618.268 141.528 619.378 146.39 621.597 150.723C623.922 154.95 627.039 158.279 630.949 160.709C634.965 163.14 639.456 164.355 644.422 164.355Z" fill="#005C2F"/>
<path d="M735.14 181C726.369 181 718.655 178.834 711.998 174.501C705.446 170.168 700.849 164.355 698.207 157.063L711.998 150.564C714.322 155.425 717.493 159.283 721.508 162.136C725.629 164.989 730.173 166.416 735.14 166.416C739.367 166.416 742.801 165.465 745.443 163.563C748.085 161.661 749.406 159.071 749.406 155.795C749.406 153.682 748.824 151.991 747.662 150.723C746.5 149.349 745.02 148.239 743.224 147.394C741.533 146.548 739.789 145.914 737.993 145.491L724.52 141.687C717.123 139.573 711.575 136.403 707.876 132.176C704.284 127.843 702.487 122.823 702.487 117.116C702.487 111.938 703.808 107.447 706.45 103.642C709.092 99.7319 712.737 96.7201 717.387 94.6064C722.036 92.4928 727.267 91.436 733.079 91.436C740.899 91.436 747.873 93.3911 754.002 97.3013C760.131 101.106 764.464 106.443 767 113.312L753.21 119.811C751.519 115.69 748.824 112.414 745.126 109.983C741.533 107.552 737.465 106.337 732.921 106.337C729.011 106.337 725.893 107.288 723.569 109.19C721.244 110.987 720.082 113.365 720.082 116.324C720.082 118.332 720.61 120.023 721.667 121.396C722.723 122.665 724.097 123.721 725.788 124.567C727.479 125.307 729.222 125.941 731.019 126.469L744.967 130.591C752.047 132.598 757.49 135.769 761.294 140.102C765.098 144.329 767 149.402 767 155.32C767 160.392 765.626 164.884 762.879 168.794C760.237 172.598 756.538 175.61 751.783 177.83C747.028 179.943 741.48 181 735.14 181Z" fill="#005C2F"/>
<defs>
<filter id="filter0_n_13_8147" x="0" y="0" width="242" height="242" filterUnits="userSpaceOnUse" color-interpolation-filters="sRGB">
<feFlood flood-opacity="0" result="BackgroundImageFix"/>
<feBlend mode="normal" in="SourceGraphic" in2="BackgroundImageFix" result="shape"/>
<feTurbulence type="fractalNoise" baseFrequency="1.25 1.25" stitchTiles="stitch" numOctaves="3" result="noise" seed="7909" />
<feColorMatrix in="noise" type="luminanceToAlpha" result="alphaNoise" />
<feComponentTransfer in="alphaNoise" result="coloredNoise1">
<feFuncA type="discrete" tableValues="1 1 1 1 1 1 1 1 1 1 1 1 1 1 1 1 1 1 1 1 1 1 1 1 1 1 1 1 1 1 1 1 1 1 1 1 1 1 1 1 1 1 1 1 1 1 1 1 1 1 1 0 0 0 0 0 0 0 0 0 0 0 0 0 0 0 0 0 0 0 0 0 0 0 0 0 0 0 0 0 0 0 0 0 0 0 0 0 0 0 0 0 0 0 0 0 0 0 0 0 "/>
</feComponentTransfer>
<feComposite operator="in" in2="shape" in="coloredNoise1" result="noise1Clipped" />
<feFlood flood-color="rgba(0, 0, 0, 0.25)" result="color1Flood" />
<feComposite operator="in" in2="noise1Clipped" in="color1Flood" result="color1" />
<feMerge result="effect1_noise_13_8147">
<feMergeNode in="shape" />
<feMergeNode in="color1" />
</feMerge>
</filter>
<linearGradient id="paint0_linear_13_8147" x1="75.4186" y1="241.995" x2="242.666" y2="15.7739" gradientUnits="userSpaceOnUse">
<stop stop-color="#005C2F"/>
<stop offset="1" stop-color="#6EC34B"/>
</linearGradient>
<linearGradient id="paint1_linear_13_8147" x1="75.4186" y1="241.995" x2="242.666" y2="15.7739" gradientUnits="userSpaceOnUse">
<stop stop-color="#005C2F"/>
<stop offset="1" stop-color="#6EC34B"/>
</linearGradient>
</defs>
</svg>
