<svg viewBox="0 0 242 242" fill="none" xmlns="http://www.w3.org/2000/svg">
<path d="M182.703 212.285C176.837 230.062 160.764 242 142.696 242H106.083C89.6145 242 74.6434 232.057 67.7129 216.516C65.6903 211.981 64.1438 207.139 64.4059 202.147C65.0096 190.648 70.0883 175.806 84.1199 158.251L84.1203 158.251C93.8697 145.972 117.948 121.77 146.203 108.848L146.872 108.544C149.978 107.22 153.164 105.99 156.426 104.866C139.667 112.111 110.023 130.366 87.391 162.558C83.8045 167.659 80.8904 174.1 79.3276 180.573C77.7655 187.043 77.5487 193.568 79.3833 198.825C81.2229 204.096 85.1207 208.076 91.7376 209.438C98.3389 210.796 107.634 209.547 120.286 204.42C124.83 202.579 132.564 196.575 141.272 186.64C149.986 176.698 159.692 162.799 168.172 145.141C171.78 137.629 180.348 118.056 198.671 101.373C207.549 93.2893 218.392 104.132 214.561 115.741L182.703 212.285Z" fill="url(#vithos_mark_grad)"/>
<path d="M83.0004 25.1433C83.0004 42.4733 99.4585 54.6077 115.178 48.8672L217.53 11.4897C232 6.20531 245.95 20.6163 240.971 35.7054L230.193 68.3671C227.647 76.0845 218.816 79.5833 211.367 77.0268C203.325 74.2666 193.377 72.0137 182.568 71.3602C173.24 70.7962 148.071 73.4655 121.85 88.6226C112.95 93.767 91.734 109.564 78.7325 129.426L78.7298 129.43C73.7147 137.509 64.8233 154.168 67.0179 179.058C67.1133 180.14 66.8707 181.408 66.4559 182.406C64.1722 187.898 55.3106 188.706 52.8897 183.278L3.92766 73.4891C1.34029 67.6874 3.40141e-05 61.3685 0 54.9728V43.1698C0 19.3278 18.5803 0 41.5002 0H58.8295C72.1787 0 83.0004 11.2571 83.0004 25.1433Z" fill="url(#vithos_mark_grad)"/>
<defs>
<linearGradient id="vithos_mark_grad" x1="75.4186" y1="241.995" x2="242.666" y2="15.7739" gradientUnits="userSpaceOnUse">
<stop stop-color="#005C2F"/>
<stop offset="1" stop-color="#6EC34B"/>
</linearGradient>
</defs>
</svg>
